<?xml version="1.0" standalone="no"?>
<!DOCTYPE svg PUBLIC "-//W3C//DTD SVG 20010904//EN"
 "http://www.w3.org/TR/2001/REC-SVG-20010904/DTD/svg10.dtd">
<svg version="1.0" xmlns="http://www.w3.org/2000/svg"
 width="300.000000pt" height="300.000000pt" viewBox="0 0 300.000000 300.000000"
 preserveAspectRatio="xMidYMid meet">
<metadata>
Created by potrace 1.14, written by Peter Selinger 2001-2017
</metadata>
<g transform="translate(0.000000,300.000000) scale(0.100000,-0.100000)"
fill="#000000" stroke="none">
<path d="M45 2808 c-2 -7 -4 -26 -4 -43 1 -16 0 -43 0 -60 0 -16 -1 -37 0 -45
0 -8 0 -35 0 -60 0 -25 0 -58 0 -75 0 -16 0 -43 0 -60 -1 -16 -1 -37 0 -45 0
-8 0 -35 0 -60 0 -25 0 -58 0 -75 0 -16 0 -43 0 -60 -1 -16 -1 -37 0 -45 0 -8
0 -35 0 -60 0 -25 0 -58 0 -75 0 -16 0 -43 0 -60 -1 -16 -1 -37 0 -45 0 -8 0
-35 0 -60 0 -25 0 -58 0 -75 0 -16 0 -43 0 -60 -1 -16 -1 -37 0 -45 0 -8 0
-35 0 -60 0 -25 0 -58 0 -75 0 -16 0 -43 0 -60 -1 -16 -1 -37 0 -45 0 -8 0
-35 0 -60 0 -25 0 -58 0 -75 1 -16 1 -41 0 -55 -3 -94 -1 -109 16 -118 28 -13
538 -7 608 8 171 36 250 138 272 355 9 80 8 874 0 951 -8 65 -31 153 -53 195
-34 67 -108 121 -198 145 -70 18 -635 20 -641 2z m542 -206 c38 -27 59 -78 69
-168 8 -74 13 -843 5 -858 -2 -5 -5 -31 -7 -58 -2 -26 -12 -68 -23 -93 -29
-66 -69 -82 -206 -81 l-109 1 0 66 c0 36 4 71 8 77 4 7 4 12 -1 12 -10 0 -10
91 1 108 4 7 4 12 -1 12 -10 0 -10 91 1 108 4 7 4 12 -1 12 -10 0 -10 91 1
108 4 7 4 12 -1 12 -10 0 -9 311 1 328 4 7 4 12 -1 12 -9 0 -10 137 0 146 3 3
2 16 -3 29 -5 14 -5 26 3 34 6 6 7 11 1 11 -5 0 -9 32 -9 70 0 39 4 70 9 70 5
0 5 6 0 13 -8 11 -9 22 -5 49 0 5 54 6 120 5 102 -3 122 -7 148 -25z"/>
<path d="M1063 2803 c-15 -31 -8 -174 8 -184 8 -4 74 -7 147 -6 72 1 133 0
133 -3 1 -3 2 -328 3 -723 1 -657 2 -720 18 -731 21 -15 253 -15 269 1 7 7 11
237 11 732 0 532 3 721 12 721 6 1 71 1 144 2 154 1 145 -7 140 123 l-3 80
-437 3 c-409 2 -438 1 -445 -15z"/>
<path d="M2075 2810 c-8 -12 -7 -1296 0 -1352 7 -52 40 -153 56 -173 46 -55
111 -112 129 -113 3 0 16 -5 30 -11 89 -39 294 -47 400 -16 30 9 61 16 68 17
6 1 12 5 12 10 0 4 7 8 15 8 13 0 92 72 121 111 9 13 26 47 28 59 1 3 4 10 8
16 19 29 23 163 23 779 l0 670 -132 3 c-73 1 -134 -1 -135 -5 0 -4 -2 -291 -3
-638 -1 -346 -5 -654 -9 -682 -16 -131 -62 -176 -179 -175 -79 1 -133 48 -154
135 -3 12 -6 319 -8 682 -1 363 -3 666 -4 673 -1 15 -256 18 -266 2z"/>
<path d="M100 972 c-65 -32 -70 -56 -70 -332 0 -222 2 -248 19 -276 42 -68
-60 -64 1463 -64 1326 0 1374 1 1404 19 59 36 64 63 64 325 0 264 -5 291 -62
326 -33 20 -46 20 -1408 20 -1289 0 -1377 -1 -1410 -18z"/>
</g>
</svg>
