<svg width="348" height="293" viewBox="0 0 348 293" fill="none" xmlns="http://www.w3.org/2000/svg">
<path d="M289.781 70.9688H244.891L234.196 40.9977C233.457 38.9468 232.103 37.1741 230.319 35.9216C228.535 34.6692 226.408 33.9981 224.228 34H122.96C118.504 34 114.51 36.8057 113.024 40.9977L102.297 70.9688H57.4062C42.8168 70.9688 31 82.7855 31 97.375V247.891C31 262.48 42.8168 274.297 57.4062 274.297H289.781C304.371 274.297 316.188 262.48 316.188 247.891V97.375C316.188 82.7855 304.371 70.9688 289.781 70.9688ZM292.422 247.891C292.422 249.343 291.234 250.531 289.781 250.531H57.4062C55.9539 250.531 54.7656 249.343 54.7656 247.891V97.375C54.7656 95.9227 55.9539 94.7344 57.4062 94.7344H119.032L124.676 78.9566L132.235 57.7656H214.92L222.478 78.9566L228.123 94.7344H289.781C291.234 94.7344 292.422 95.9227 292.422 97.375V247.891ZM173.594 115.859C144.415 115.859 120.781 139.493 120.781 168.672C120.781 197.851 144.415 221.484 173.594 221.484C202.773 221.484 226.406 197.851 226.406 168.672C226.406 139.493 202.773 115.859 173.594 115.859ZM173.594 200.359C156.1 200.359 141.906 186.166 141.906 168.672C141.906 151.178 156.1 136.984 173.594 136.984C191.088 136.984 205.281 151.178 205.281 168.672C205.281 186.166 191.088 200.359 173.594 200.359Z" fill="#333333"/>
<path d="M7.49983 6.5L341 286" stroke="#4094F7" stroke-width="8"/>
<path d="M8 286L343.5 5" stroke="#4094F7" stroke-width="8"/>
<path d="M103.773 12.4545V27H102.069L94.1427 15.5795H94.0006V27H92.2393V12.4545H93.9438L101.898 23.9034H102.04V12.4545H103.773Z" fill="black"/>
<path d="M111.382 27.2273C110.398 27.2273 109.533 26.9929 108.79 26.5241C108.051 26.0554 107.474 25.3996 107.057 24.5568C106.645 23.714 106.439 22.7292 106.439 21.6023C106.439 20.4659 106.645 19.474 107.057 18.6264C107.474 17.7789 108.051 17.1207 108.79 16.652C109.533 16.1832 110.398 15.9489 111.382 15.9489C112.367 15.9489 113.229 16.1832 113.968 16.652C114.711 17.1207 115.289 17.7789 115.701 18.6264C116.117 19.474 116.326 20.4659 116.326 21.6023C116.326 22.7292 116.117 23.714 115.701 24.5568C115.289 25.3996 114.711 26.0554 113.968 26.5241C113.229 26.9929 112.367 27.2273 111.382 27.2273ZM111.382 25.7216C112.131 25.7216 112.746 25.5298 113.229 25.1463C113.712 24.7628 114.069 24.2585 114.301 23.6335C114.533 23.0085 114.649 22.3314 114.649 21.6023C114.649 20.8731 114.533 20.1937 114.301 19.5639C114.069 18.9342 113.712 18.4252 113.229 18.0369C112.746 17.6487 112.131 17.4545 111.382 17.4545C110.634 17.4545 110.019 17.6487 109.536 18.0369C109.053 18.4252 108.695 18.9342 108.463 19.5639C108.231 20.1937 108.115 20.8731 108.115 21.6023C108.115 22.3314 108.231 23.0085 108.463 23.6335C108.695 24.2585 109.053 24.7628 109.536 25.1463C110.019 25.5298 110.634 25.7216 111.382 25.7216Z" fill="black"/>
<path d="M124.269 31.0909V16.0909H125.888V17.8239H126.087C126.21 17.6345 126.381 17.393 126.599 17.0994C126.821 16.8011 127.138 16.536 127.55 16.304C127.967 16.0672 128.531 15.9489 129.241 15.9489C130.159 15.9489 130.969 16.1785 131.67 16.6378C132.37 17.0971 132.917 17.7481 133.31 18.5909C133.703 19.4337 133.9 20.428 133.9 21.5739C133.9 22.7292 133.703 23.7306 133.31 24.5781C132.917 25.4209 132.373 26.0743 131.677 26.5384C130.981 26.9976 130.178 27.2273 129.269 27.2273C128.568 27.2273 128.007 27.1113 127.586 26.8793C127.165 26.6425 126.84 26.375 126.613 26.0767C126.386 25.7737 126.21 25.5227 126.087 25.3239H125.945V31.0909H124.269ZM125.917 21.5455C125.917 22.3693 126.038 23.0961 126.279 23.7259C126.521 24.3509 126.873 24.8409 127.337 25.196C127.801 25.5464 128.37 25.7216 129.042 25.7216C129.743 25.7216 130.327 25.5369 130.796 25.1676C131.27 24.7936 131.625 24.2917 131.861 23.6619C132.103 23.0275 132.224 22.322 132.224 21.5455C132.224 20.7784 132.105 20.0871 131.869 19.4716C131.637 18.8513 131.284 18.3613 130.81 18.0014C130.342 17.6368 129.752 17.4545 129.042 17.4545C128.36 17.4545 127.787 17.6274 127.323 17.973C126.859 18.3139 126.509 18.7921 126.272 19.4077C126.035 20.0185 125.917 20.7311 125.917 21.5455Z" fill="black"/>
<path d="M136.337 27V16.0909H137.956V17.7386H138.07C138.268 17.1989 138.628 16.7609 139.149 16.4247C139.67 16.0885 140.257 15.9205 140.911 15.9205C141.034 15.9205 141.188 15.9228 141.372 15.9276C141.557 15.9323 141.697 15.9394 141.791 15.9489V17.6534C141.734 17.6392 141.604 17.6179 141.401 17.5895C141.202 17.5563 140.991 17.5398 140.768 17.5398C140.238 17.5398 139.765 17.651 139.348 17.8736C138.936 18.0914 138.609 18.3944 138.368 18.7827C138.131 19.1662 138.013 19.6042 138.013 20.0966V27H136.337Z" fill="black"/>
<path d="M147.9 27.2273C146.849 27.2273 145.942 26.9953 145.18 26.5312C144.422 26.0625 143.837 25.4091 143.425 24.571C143.018 23.7282 142.815 22.7481 142.815 21.6307C142.815 20.5133 143.018 19.5284 143.425 18.6761C143.837 17.8191 144.41 17.1515 145.144 16.6733C145.883 16.1903 146.745 15.9489 147.729 15.9489C148.298 15.9489 148.859 16.0436 149.413 16.233C149.967 16.4223 150.471 16.7301 150.925 17.1562C151.38 17.5777 151.742 18.1364 152.012 18.8324C152.282 19.5284 152.417 20.3854 152.417 21.4034V22.1136H144.008V20.6648H150.712C150.712 20.0492 150.589 19.5 150.343 19.017C150.102 18.5341 149.756 18.1529 149.306 17.8736C148.861 17.5942 148.336 17.4545 147.729 17.4545C147.062 17.4545 146.484 17.6203 145.997 17.9517C145.514 18.2784 145.142 18.7045 144.881 19.2301C144.621 19.7557 144.491 20.3191 144.491 20.9205V21.8864C144.491 22.7102 144.633 23.4086 144.917 23.9815C145.206 24.5497 145.606 24.983 146.117 25.2812C146.629 25.5748 147.223 25.7216 147.9 25.7216C148.34 25.7216 148.738 25.66 149.093 25.5369C149.453 25.4091 149.763 25.2197 150.023 24.9688C150.284 24.7131 150.485 24.3958 150.627 24.017L152.247 24.4716C152.076 25.0208 151.79 25.5038 151.387 25.9205C150.985 26.3324 150.488 26.6544 149.896 26.8864C149.304 27.1136 148.639 27.2273 147.9 27.2273Z" fill="black"/>
<path d="M163.435 16.0909L159.401 27H157.696L153.662 16.0909H155.481L158.492 24.7841H158.606L161.617 16.0909H163.435Z" fill="black"/>
<path d="M165.527 27V16.0909H167.204V27H165.527ZM166.38 14.2727C166.053 14.2727 165.771 14.1615 165.535 13.9389C165.303 13.7164 165.187 13.4489 165.187 13.1364C165.187 12.8239 165.303 12.5563 165.535 12.3338C165.771 12.1113 166.053 12 166.38 12C166.706 12 166.986 12.1113 167.218 12.3338C167.455 12.5563 167.573 12.8239 167.573 13.1364C167.573 13.4489 167.455 13.7164 167.218 13.9389C166.986 14.1615 166.706 14.2727 166.38 14.2727Z" fill="black"/>
<path d="M174.727 27.2273C173.676 27.2273 172.77 26.9953 172.007 26.5312C171.25 26.0625 170.665 25.4091 170.253 24.571C169.846 23.7282 169.642 22.7481 169.642 21.6307C169.642 20.5133 169.846 19.5284 170.253 18.6761C170.665 17.8191 171.238 17.1515 171.972 16.6733C172.71 16.1903 173.572 15.9489 174.557 15.9489C175.125 15.9489 175.686 16.0436 176.24 16.233C176.794 16.4223 177.298 16.7301 177.753 17.1562C178.208 17.5777 178.57 18.1364 178.84 18.8324C179.11 19.5284 179.244 20.3854 179.244 21.4034V22.1136H170.835V20.6648H177.54C177.54 20.0492 177.417 19.5 177.171 19.017C176.929 18.5341 176.583 18.1529 176.134 17.8736C175.689 17.5942 175.163 17.4545 174.557 17.4545C173.889 17.4545 173.312 17.6203 172.824 17.9517C172.341 18.2784 171.969 18.7045 171.709 19.2301C171.449 19.7557 171.318 20.3191 171.318 20.9205V21.8864C171.318 22.7102 171.46 23.4086 171.744 23.9815C172.033 24.5497 172.433 24.983 172.945 25.2812C173.456 25.5748 174.05 25.7216 174.727 25.7216C175.168 25.7216 175.565 25.66 175.921 25.5369C176.28 25.4091 176.591 25.2197 176.851 24.9688C177.111 24.7131 177.313 24.3958 177.455 24.017L179.074 24.4716C178.904 25.0208 178.617 25.5038 178.215 25.9205C177.812 26.3324 177.315 26.6544 176.723 26.8864C176.131 27.1136 175.466 27.2273 174.727 27.2273Z" fill="black"/>
<path d="M184.146 27L180.822 16.0909H182.583L184.941 24.4432H185.055L187.384 16.0909H189.174L191.475 24.4148H191.589L193.947 16.0909H195.708L192.384 27H190.737L188.35 18.6193H188.18L185.793 27H184.146Z" fill="black"/>
<path d="M203.309 27V16.0909H204.985V27H203.309ZM204.161 14.2727C203.835 14.2727 203.553 14.1615 203.316 13.9389C203.084 13.7164 202.968 13.4489 202.968 13.1364C202.968 12.8239 203.084 12.5563 203.316 12.3338C203.553 12.1113 203.835 12 204.161 12C204.488 12 204.768 12.1113 205 12.3338C205.236 12.5563 205.355 12.8239 205.355 13.1364C205.355 13.4489 205.236 13.7164 205 13.9389C204.768 14.1615 204.488 14.2727 204.161 14.2727Z" fill="black"/>
<path d="M207.935 27V16.0909H209.555V17.7955H209.697C209.924 17.2131 210.291 16.7609 210.797 16.4389C211.304 16.1122 211.913 15.9489 212.623 15.9489C213.342 15.9489 213.941 16.1122 214.42 16.4389C214.903 16.7609 215.279 17.2131 215.549 17.7955H215.663C215.942 17.232 216.361 16.7846 216.92 16.4531C217.478 16.117 218.148 15.9489 218.93 15.9489C219.905 15.9489 220.703 16.2543 221.323 16.8651C221.943 17.4711 222.253 18.4157 222.253 19.6989V27H220.577V19.6989C220.577 18.8939 220.357 18.3187 219.917 17.973C219.476 17.6274 218.958 17.4545 218.361 17.4545C217.594 17.4545 217 17.6866 216.579 18.1506C216.157 18.6098 215.947 19.1922 215.947 19.8977V27H214.242V19.5284C214.242 18.9081 214.041 18.4086 213.638 18.0298C213.236 17.6463 212.717 17.4545 212.083 17.4545C211.647 17.4545 211.24 17.5705 210.861 17.8026C210.487 18.0346 210.184 18.3565 209.952 18.7685C209.725 19.1757 209.611 19.6468 209.611 20.1818V27H207.935Z" fill="black"/>
<path d="M228.408 27.2557C227.717 27.2557 227.09 27.1255 226.526 26.8651C225.963 26.5999 225.515 26.2188 225.184 25.7216C224.852 25.2197 224.687 24.6136 224.687 23.9034C224.687 23.2784 224.81 22.7718 225.056 22.3835C225.302 21.9905 225.631 21.6828 226.043 21.4602C226.455 21.2377 226.91 21.072 227.407 20.9631C227.909 20.8494 228.413 20.7595 228.92 20.6932C229.583 20.608 230.12 20.544 230.532 20.5014C230.949 20.4541 231.252 20.3759 231.441 20.267C231.635 20.1581 231.732 19.9687 231.732 19.6989V19.642C231.732 18.9413 231.54 18.3968 231.157 18.0085C230.778 17.6203 230.203 17.4261 229.431 17.4261C228.631 17.4261 228.003 17.6013 227.549 17.9517C227.094 18.3021 226.775 18.6761 226.59 19.0739L224.999 18.5057C225.283 17.8428 225.662 17.3267 226.136 16.9574C226.614 16.5833 227.135 16.3229 227.698 16.1761C228.266 16.0246 228.825 15.9489 229.374 15.9489C229.725 15.9489 230.127 15.9915 230.582 16.0767C231.041 16.1572 231.484 16.3253 231.91 16.581C232.341 16.8366 232.698 17.2225 232.982 17.7386C233.266 18.2547 233.408 18.946 233.408 19.8125V27H231.732V25.5227H231.647C231.533 25.7595 231.344 26.0128 231.079 26.2827C230.814 26.5526 230.461 26.7822 230.021 26.9716C229.58 27.161 229.043 27.2557 228.408 27.2557ZM228.664 25.75C229.327 25.75 229.886 25.6198 230.34 25.3594C230.799 25.099 231.145 24.7628 231.377 24.3509C231.614 23.9389 231.732 23.5057 231.732 23.0511V21.517C231.661 21.6023 231.505 21.6804 231.263 21.7514C231.027 21.8177 230.752 21.8769 230.44 21.929C230.132 21.9763 229.831 22.0189 229.538 22.0568C229.249 22.09 229.014 22.1184 228.834 22.142C228.399 22.1989 227.992 22.2912 227.613 22.419C227.239 22.5421 226.936 22.7292 226.704 22.9801C226.476 23.2263 226.363 23.5625 226.363 23.9886C226.363 24.571 226.578 25.0114 227.009 25.3097C227.445 25.6032 227.996 25.75 228.664 25.75Z" fill="black"/>
<path d="M240.751 31.3182C239.941 31.3182 239.245 31.214 238.663 31.0057C238.081 30.8021 237.595 30.5322 237.207 30.196C236.823 29.8646 236.518 29.5095 236.291 29.1307L237.626 28.1932C237.778 28.392 237.969 28.6193 238.201 28.875C238.433 29.1354 238.751 29.3603 239.153 29.5497C239.56 29.7438 240.093 29.8409 240.751 29.8409C241.632 29.8409 242.358 29.6278 242.931 29.2017C243.504 28.7756 243.791 28.108 243.791 27.1989V24.983H243.649C243.526 25.1818 243.35 25.428 243.123 25.7216C242.901 26.0104 242.579 26.2685 242.157 26.4957C241.741 26.7183 241.177 26.8295 240.467 26.8295C239.586 26.8295 238.796 26.6212 238.095 26.2045C237.399 25.7879 236.847 25.1818 236.44 24.3864C236.037 23.5909 235.836 22.625 235.836 21.4886C235.836 20.3712 236.033 19.3982 236.426 18.5696C236.819 17.7363 237.366 17.0923 238.066 16.6378C238.767 16.1785 239.577 15.9489 240.495 15.9489C241.206 15.9489 241.769 16.0672 242.186 16.304C242.607 16.536 242.929 16.8011 243.152 17.0994C243.379 17.393 243.554 17.6345 243.677 17.8239H243.848V16.0909H245.467V27.3125C245.467 28.25 245.254 29.0123 244.828 29.5994C244.406 30.1913 243.838 30.6245 243.123 30.8991C242.413 31.1785 241.622 31.3182 240.751 31.3182ZM240.694 25.3239C241.367 25.3239 241.935 25.17 242.399 24.8622C242.863 24.5545 243.216 24.1117 243.457 23.5341C243.698 22.9564 243.819 22.2652 243.819 21.4602C243.819 20.6742 243.701 19.9806 243.464 19.3793C243.227 18.7779 242.877 18.3068 242.413 17.9659C241.949 17.625 241.376 17.4545 240.694 17.4545C239.984 17.4545 239.392 17.6345 238.919 17.9943C238.45 18.3542 238.097 18.8371 237.86 19.4432C237.628 20.0492 237.512 20.7216 237.512 21.4602C237.512 22.2178 237.631 22.8878 237.867 23.4702C238.109 24.0478 238.464 24.5024 238.933 24.8338C239.406 25.1605 239.993 25.3239 240.694 25.3239Z" fill="black"/>
<path d="M252.989 27.2273C251.938 27.2273 251.031 26.9953 250.269 26.5312C249.511 26.0625 248.926 25.4091 248.515 24.571C248.107 23.7282 247.904 22.7481 247.904 21.6307C247.904 20.5133 248.107 19.5284 248.515 18.6761C248.926 17.8191 249.499 17.1515 250.233 16.6733C250.972 16.1903 251.834 15.9489 252.819 15.9489C253.387 15.9489 253.948 16.0436 254.502 16.233C255.056 16.4223 255.56 16.7301 256.015 17.1562C256.469 17.5777 256.831 18.1364 257.101 18.8324C257.371 19.5284 257.506 20.3854 257.506 21.4034V22.1136H249.097V20.6648H255.801C255.801 20.0492 255.678 19.5 255.432 19.017C255.191 18.5341 254.845 18.1529 254.395 17.8736C253.95 17.5942 253.425 17.4545 252.819 17.4545C252.151 17.4545 251.573 17.6203 251.086 17.9517C250.603 18.2784 250.231 18.7045 249.971 19.2301C249.71 19.7557 249.58 20.3191 249.58 20.9205V21.8864C249.58 22.7102 249.722 23.4086 250.006 23.9815C250.295 24.5497 250.695 24.983 251.206 25.2812C251.718 25.5748 252.312 25.7216 252.989 25.7216C253.429 25.7216 253.827 25.66 254.182 25.5369C254.542 25.4091 254.852 25.2197 255.113 24.9688C255.373 24.7131 255.574 24.3958 255.716 24.017L257.336 24.4716C257.165 25.0208 256.879 25.5038 256.476 25.9205C256.074 26.3324 255.577 26.6544 254.985 26.8864C254.393 27.1136 253.728 27.2273 252.989 27.2273Z" fill="black"/>
<rect x="4" y="4" width="340" height="285" stroke="#4094F7" stroke-width="8"/>
</svg>
